<svg width="0" height="0" fill="none" style="visibility: hidden; position: absolute;" aria-hidden="true">
    <symbol id="Type=Frozen" xmlns="http://www.w3.org/2000/svg" fill="none" viewBox="0 0 30 30">
        <path fill="#6FAFF3" d="M15.043 4a.75.75 0 0 1 .745.648l.005.102v2.689l1.72-1.72a.75.75 0 0 1 .977-.072l.085.073a.75.75 0 0 1 .072.976l-.072.084-2.78 2.78-.002 4.39 3.803-2.194 1.017-3.798a.75.75 0 0 1 1.47.279l-.02.109-.63 2.35 2.33-1.346a.75.75 0 0 1 .833 1.243l-.084.057-2.328 1.344 2.348.63a.75.75 0 0 1 .55.809l-.02.11a.75.75 0 0 1-.81.55l-.107-.02-3.799-1.018-3.802 2.194 3.802 2.196 3.799-1.018a.75.75 0 0 1 .492 1.413l-.105.036-2.35.63 2.33 1.344a.75.75 0 0 1-.659 1.344l-.09-.044-2.329-1.344.628 2.348a.75.75 0 0 1-.425.882l-.105.037a.75.75 0 0 1-.881-.426l-.038-.105-1.017-3.797-3.803-2.197v4.391l2.78 2.78a.75.75 0 0 1-.976 1.134l-.084-.073-1.72-1.72v2.69a.75.75 0 0 1-1.492.102l-.008-.102v-2.688l-1.72 1.718a.75.75 0 0 1-.976.073l-.083-.073a.75.75 0 0 1-.073-.976l.072-.084 2.78-2.78v-4.391l-3.8 2.195-1.018 3.798a.75.75 0 0 1-1.47-.279l.02-.109.63-2.35-2.33 1.346a.75.75 0 0 1-.834-1.243l.085-.057 2.328-1.344-2.348-.63a.75.75 0 0 1-.551-.809l.02-.11a.75.75 0 0 1 .81-.55l.11.02 3.797 1.018 3.801-2.195-3.8-2.195-3.8 1.018a.75.75 0 0 1-.492-1.413l.105-.036 2.35-.63-2.33-1.344a.75.75 0 0 1 .659-1.344l.09.044 2.329 1.344-.628-2.348a.75.75 0 0 1 .425-.882l.105-.037a.75.75 0 0 1 .882.426l.037.105 1.017 3.797 3.801 2.196v-4.39l-2.78-2.78a.75.75 0 0 1 .978-1.134l.084.073 1.72 1.719V4.75a.75.75 0 0 1 .75-.75h-.002Z"/>
    </symbol>
    <symbol id="Type=Normal" xmlns="http://www.w3.org/2000/svg" fill="none" viewBox="0 0 30 30">
        <g stroke="#FF9B5C" stroke-width="1.5">
            <path d="M15 21a6 6 0 1 0 0-12 6 6 0 0 0 0 12Z"/>
            <path stroke-linecap="round" d="M15 4v2m7.778 1.222-1.414 1.414M26 15h-2m-1.222 7.778-1.414-1.414M15 26v-2m-7.778-1.222 1.414-1.414M4 15h2m1.222-7.778 1.414 1.414"/>
        </g>
    </symbol>
    <symbol id="Type=Refrigerated" xmlns="http://www.w3.org/2000/svg" fill="none" viewBox="0 0 30 30">
        <g stroke="#5EC49E" stroke-width="1.5">
            <path stroke-linejoin="round" d="M14.627 25.255a7.627 7.627 0 0 0 7.626-7.627c0-2.808-2.542-7.184-7.626-13.128C9.542 10.444 7 14.82 7 17.628a7.627 7.627 0 0 0 7.627 7.627Z" clip-rule="evenodd"/>
            <path stroke-linecap="round" d="M14.627 20.66a3.811 3.811 0 0 0 3.813-3.813"/>
        </g>
    </symbol>
</svg>